<?xml version="1.0" encoding="UTF-8" standalone="no"?>
<svg width="738px" height="772px" viewBox="0 0 738 772" version="1.1" xmlns="http://www.w3.org/2000/svg" xmlns:xlink="http://www.w3.org/1999/xlink">
    <!-- Generator: Sketch 46.2 (44496) - http://www.bohemiancoding.com/sketch -->
    <title>logo v2 with color copy</title>
    <desc>Created with Sketch.</desc>
    <defs></defs>
    <g id="Hearts" stroke="none" stroke-width="1" fill="none" fill-rule="evenodd">
        <g id="Col-2" transform="translate(0.000000, -3.000000)">
            <g id="Group-2-Copy">
                <g id="logo-v2-with-color-copy">
                    <g id="Group" transform="translate(369.000000, 255.500000) scale(-1, 1) translate(-369.000000, -255.500000) ">
                        <path d="M46,214.777306 C105.327155,188.561923 137.657122,191.340513 142.9899,223.113074 C143.656497,257.53335 111.326531,254.75476 46,214.777306 Z" id="Path-4" fill="#FFB04C"></path>
                        <path d="M409,297.170519 C469.666667,263.609827 500,263.609827 500,297.170519 C475.333333,324.94316 445,324.94316 409,297.170519 Z" id="Path-4" fill="#00BA61" transform="translate(454.500000, 295.000000) rotate(200.000000) translate(-454.500000, -295.000000) "></path>
                        <path d="M648,153 C635.900995,208.857075 613.319821,237.190409 580.256479,238 C577.301368,201.031814 599.882541,172.69848 648,153 Z" id="Path-4" fill="#3ECF89"></path>
                        <path d="M147.141875,87 C202.130228,127.615026 218.588825,157.244021 196.517664,175.886984 C161.738866,186.540106 145.280269,156.911111 147.141875,87 Z" id="Path-4" fill="#FFB04C"></path>
                        <path d="M630,333 C556.193702,328.548579 531.024633,309.167712 554.492792,274.857397 C587.890459,264.150919 613.059528,283.531787 630,333 Z" id="Path-4" fill="#FF8E00"></path>
                        <path d="M388,69 C370.463189,118.06947 346.796522,139.356484 317,132.861041 C318.759033,97.9829129 342.4257,76.6958993 388,69 Z" id="Path-4" fill="#D17400"></path>
                        <path d="M0,339.120891 C52.5555019,291.340116 81.5555019,287.327563 87,327.083231 C75.6622558,348.782622 63.4444981,370.851453 0,339.120891 Z" id="Path-4" fill="#00BA61"></path>
                        <path d="M703.220902,424.288152 C638.261523,393.455113 639.136899,349.946083 670.090901,336.342968 C701.044902,322.739854 705.847637,368.360164 703.220902,424.288152 Z" id="Path-4" fill="#FFB04C" transform="translate(676.743736, 379.103901) rotate(-90.000000) translate(-676.743736, -379.103901) "></path>
                        <path d="M135,310 C169.08154,279.672258 169.065349,222.542623 210.47772,236.025199 C209.540457,233.268436 247.831016,298.196459 135,310 Z" id="Path-4" fill="#FF7A4C"></path>
                        <path d="M226,241 C262.964724,206.681766 262.947163,142.035074 307.862882,157.291673 C306.846329,154.172177 333.094803,225.870574 226,241 Z" id="Path-4" fill="#00BA61" transform="translate(268.000000, 198.000000) rotate(150.000000) translate(-268.000000, -198.000000) "></path>
                        <path d="M477,137 C511.08154,106.672258 511.065349,49.5426233 552.47772,63.0251994 C551.540457,60.2684357 589.831016,125.196459 477,137 Z" id="Path-4" fill="#00BA61" transform="translate(517.500000, 99.000000) rotate(170.000000) translate(-517.500000, -99.000000) "></path>
                        <path d="M332,257 C366.007358,226.650945 358.219612,171.599 399.541844,185.091051 C396.021042,175.401913 444.585428,245.188164 332,257 Z" id="Path-4" fill="#3ECF89" transform="translate(369.500000, 220.000000) rotate(110.000000) translate(-369.500000, -220.000000) "></path>
                        <path d="M401,198 C436.821084,171.752169 428.617991,124.139675 472.144076,135.808476 C468.435498,127.428681 519.589984,187.784358 401,198 Z" id="Path-4" fill="#FFB04C" transform="translate(440.500000, 166.000000) rotate(222.000000) translate(-440.500000, -166.000000) "></path>
                        <path d="M523,443 C557.92306,412.672258 557.906469,355.542623 600.341367,369.025199 C599.380962,366.268436 638.616967,431.196459 523,443 Z" id="Path-4" fill="#3ECF89" transform="translate(564.500000, 405.000000) rotate(-343.000000) translate(-564.500000, -405.000000) "></path>
                        <path d="M221.164275,341.087842 C258.886459,308.329296 262.09804,252.492475 307.934146,267.055695 C306.896763,264.077974 346.048078,328.338233 221.164275,341.087842 Z" id="Path-4" fill="#3ECF89" transform="translate(267.059692, 302.884122) rotate(-343.000000) translate(-267.059692, -302.884122) "></path>
                        <path d="M645,308 C679.08154,277.696853 657.472317,237.524425 720.47772,234.085191 C719.540457,231.330663 757.831016,296.206031 645,308 Z" id="Path-4" fill="#FF7A4C" transform="translate(685.500000, 271.000000) scale(-1, 1) rotate(62.000000) translate(-685.500000, -271.000000) "></path>
                        <path d="M25,176 C59.0815403,145.696853 37.4723173,105.524425 100.47772,102.085191 C99.5404571,99.3306631 137.831016,164.206031 25,176 Z" id="Path-4" fill="#3ECF89" transform="translate(65.500000, 139.000000) rotate(212.000000) translate(-65.500000, -139.000000) "></path>
                        <path d="M583.455989,455.362151 C595.968757,455.362151 665.328532,439.981059 658.532598,487.716571 C607.804699,525.772765 570.943221,455.362151 583.455989,455.362151 Z" id="Path-4" fill="#FF8E00" transform="translate(620.000000, 476.000000) rotate(-20.000000) translate(-620.000000, -476.000000) "></path>
                        <path d="M477.066793,176 C489.527146,176 556.141151,184.072485 561,225.453176 C510.484598,263.393942 464.60644,176 477.066793,176 Z" id="Path-4-Copy" fill="#FF8E00" transform="translate(518.000000, 205.500000) rotate(-83.000000) translate(-518.000000, -205.500000) "></path>
                        <path d="M392.304522,21.8251494 C404.803127,21.8251494 477.340987,8.25823035 470.552745,55.1024014 C419.882264,92.4479908 379.805916,21.8251494 392.304522,21.8251494 Z" id="Path-4" fill="#FF7A4C" transform="translate(430.500000, 43.000000) rotate(35.000000) translate(-430.500000, -43.000000) "></path>
                        <path d="M56,403.6864 C66.6666667,367.429689 100.666667,356.015539 158,369.443951 C136,416.443391 102,427.857541 56,403.6864 Z" id="Path-4" fill="#FF8E00" transform="translate(107.000000, 390.000000) rotate(150.000000) translate(-107.000000, -390.000000) "></path>
                        <path d="M282.684722,19 C295.362178,83.8854044 285.361908,113.686511 252.683914,108.403321 C221.535431,90.9915257 231.5357,61.1904188 282.684722,19 Z" id="Path-4" fill="#3ECF89"></path>
                        <path d="M598.826377,45 C631.057874,115.913501 631.057874,148.730603 598.826377,143.451307 C572.391208,125.370278 572.391208,92.5531759 598.826377,45 Z" id="Path-4" fill="#FF7A4C"></path>
                    </g>
                    <path d="M205.767324,345.388407 C191.198149,341.393115 238.54797,369.360158 245.832557,377.037542 C299.097344,433.174445 314.573622,507.493912 311.393848,578.114163 C309.031635,630.577024 284.742249,687.23447 257.670013,735.928195 C247.578257,754.079822 229.442235,752.908185 210.320192,761.897592 C191.198149,770.886999 245.480142,767.445212 257.670013,755.904654 C268.533353,745.619968 284.987217,716.950558 293.182378,700.841721 C313.424052,661.053631 342.630196,631.051781 372.402271,631.051781 C413.314376,631.051781 415.524159,650.848002 453.998188,703.83819 C492.472217,756.828378 482.419118,756.903477 522.484351,764.894061 C562.549584,772.884645 501.967037,747.793551 489.703706,730.93408 C461.052351,691.544564 444.904334,629.534921 439.784709,588.102392 C429.176823,502.254003 468.234079,417.825005 507.004602,389.037542 C518.896915,380.207392 521.573777,376.366043 532.500659,366.377814 C543.427541,356.389584 500.963973,376.722283 495.167146,382.358981 C476.83818,400.181636 458.541882,429.079037 439.784709,442.274236 C389,478 320.363131,444.003359 305.019834,430.288361 C287.508633,414.635526 269.365163,380.265912 245.832557,359.371928 C237.395065,351.8805 220.3365,349.383699 205.767324,345.388407 Z" id="Path-3" stroke="#4393C7" stroke-width="15" fill="#4393C7"></path>
                    <ellipse id="Oval" stroke="#4393C7" stroke-width="20" fill="#4393C7" transform="translate(370.166322, 385.190504) rotate(21.000000) translate(-370.166322, -385.190504) " cx="370.166322" cy="385.190504" rx="51" ry="40.6111111"></ellipse>
                </g>
            </g>
        </g>
    </g>
</svg>